<!--?xml version="1.0" standalone="no"?-->
              <svg id="sw-js-blob-svg" viewBox="0 0 100 100" xmlns="http://www.w3.org/2000/svg" version="1.1">
                    <defs> 
                        <linearGradient id="sw-gradient" x1="0" x2="1" y1="1" y2="0">
                            <stop id="stop1" stop-color="rgba(43, 43, 43, 1)" offset="0%"></stop>
                            <stop id="stop2" stop-color="rgba(43, 43, 43, 1)" offset="100%"></stop>
                        </linearGradient>
                    </defs>
                <path fill="url(#sw-gradient)" d="M21.4,-27.1C24.8,-22.6,22.7,-13.1,24.9,-3.9C27.1,5.2,33.5,14.1,31.8,19.7C30.2,25.3,20.6,27.6,11.9,29.2C3.3,30.8,-4.2,31.6,-10.9,29.4C-17.5,27.2,-23.3,22,-26.9,15.6C-30.6,9.2,-32.3,1.6,-29.7,-3.9C-27.2,-9.4,-20.4,-12.8,-14.8,-17C-9.1,-21.2,-4.6,-26.2,2.2,-28.8C9,-31.5,17.9,-31.7,21.4,-27.1Z" width="100%" height="100%" transform="translate(50 50)" stroke-width="0" style="transition: all 0.3s ease 0s;"></path>
              </svg>