<!--?xml version="1.0" standalone="no"?-->
              <svg id="sw-js-blob-svg" viewBox="0 0 100 100" xmlns="http://www.w3.org/2000/svg" version="1.1">
                    <defs> 
                        <linearGradient id="sw-gradient" x1="0" x2="1" y1="1" y2="0">
                            <stop id="stop1" stop-color="rgba(242, 242, 243, 1)" offset="0%"></stop>
                            <stop id="stop2" stop-color="rgba(242, 242, 243, 1)" offset="100%"></stop>
                        </linearGradient>
                    </defs>
                <path fill="url(#sw-gradient)" d="M19.1,-30.8C23.7,-26.7,25.8,-19.7,29.4,-13.1C33.1,-6.4,38.2,-0.1,37.8,5.7C37.5,11.6,31.6,16.9,25.5,19.7C19.4,22.6,13.1,22.8,7,25.4C0.8,28.1,-5.2,33,-10.9,33.1C-16.6,33.3,-22.1,28.6,-24.4,22.9C-26.7,17.1,-25.9,10.4,-28.6,3C-31.3,-4.3,-37.6,-12.2,-35.9,-16.6C-34.2,-21.1,-24.6,-22.1,-17.3,-25.1C-9.9,-28,-5,-32.8,1.1,-34.5C7.2,-36.3,14.4,-35,19.1,-30.8Z" width="100%" height="100%" transform="translate(50 50)" stroke-width="0" style="transition: all 0.3s ease 0s;"></path>
              </svg>